<?xml version="1.0" encoding="UTF-8"?>
<svg id="Lag_1" xmlns="http://www.w3.org/2000/svg" version="1.1" viewBox="0 0 566.93 566.93">
  <!-- Generator: Adobe Illustrator 29.5.0, SVG Export Plug-In . SVG Version: 2.1.0 Build 137)  -->
  <defs>
    <style>
      .st0 {
        fill: #343434;
      }
    </style>
  </defs>
  <g id="Generativt_objekt">
    <path class="st0" d="M175.08,64.02c2.5.27,5.84.79,8.38,1.2,1.77.29,4.11.83,5.99,1.2,1.31.25,3.31.85,4.79,1.2s3.36.8,4.79,1.2c.75.21,2.43.83,3.59,1.2,1.09.34,2.45.82,3.59,1.2.13.04.82.62,2.4,1.2,21.71,9.66,43.44,25.63,57.5,44.92,5.15,7.07,12.73,26.69,15.57,29.95.87.99,3.5,1.22,3.59-.6,15.14-32.8,42.3-62.31,76.66-75.46,1.07-.41,2.4-.77,3.59-1.2,1.07-.38,2.53-.87,3.59-1.2,1.39-.43,3.25-.79,4.79-1.2,1.43-.38,3.41-.9,4.79-1.2,1.81-.39,4.22-.89,5.99-1.2,2.19-.38,5.09-.93,7.19-1.2,8.63-.6,21.33-.62,29.95,0,2.46.26,5.86.79,8.38,1.2,1.71.27,4.21.82,5.99,1.2,1.37.29,3.36.82,4.79,1.2.55.14,2.38.83,3.59,1.2,1.53.41,3.42.76,4.79,1.2.13.04.69.6,2.4,1.2,1.21.44,2.59.79,3.59,1.2,34.29,14.14,60.67,41.82,75.46,75.46.58,1.59,1.16,2.27,1.2,2.4.38,1.13.86,2.51,1.2,3.59.36,1.16.99,2.85,1.2,3.59.4,1.44.86,3.34,1.2,4.79s.94,3.48,1.2,4.79c.37,1.88.91,4.21,1.2,5.99.42,2.55.91,5.86,1.2,8.38.58,8.74.6,21.22,0,29.95-.32,2.57-.76,5.83-1.2,8.38-.14.79-.86,3.22-1.2,4.79-.3,1.39-.83,3.29-1.2,4.79s-.79,3.3-1.2,4.79c-.18.65-.82,2.32-1.2,3.59-.31,1.04-.83,2.47-1.2,3.59s-.81,2.5-1.2,3.59c-.95,2.66-3.45,7.7-4.79,10.78-14.79,29.16-41.13,56.89-63.49,80.85-54.9,58.86-117.96,113.57-179.08,165.9-63.86-57.69-131.94-115.37-189.86-179.08-20.77-22.85-43.43-47.73-56.3-76.06-.56-1.47-1.15-2.27-1.2-2.4-.39-1.08-.84-2.49-1.2-3.59s-.9-2.58-1.2-3.59c-.37-1.27-1.07-3.11-1.2-3.59-.37-1.47-.9-3.4-1.2-4.79-.39-1.81-.9-4.22-1.2-5.99-.38-2.21-.93-5.07-1.2-7.19-.41-3.97-1.09-9.35-1.2-13.18-.11-3.15-.09-6.43,0-9.58.1-4.2.75-10.06,1.2-14.37.27-2.13.83-4.96,1.2-7.19.29-1.75.81-4.18,1.2-5.99.29-1.37.83-3.33,1.2-4.79.12-.47.83-2.31,1.2-3.59.29-.99.84-2.48,1.2-3.59,14.05-37.04,41.71-65.55,77.86-81.45,1.59-.58,2.27-1.16,2.4-1.2,1.1-.37,2.57-.89,3.59-1.2,1.23-.37,3.07-1.06,3.59-1.2,1.44-.37,3.43-.91,4.79-1.2,1.57-.33,4.02-1.07,4.79-1.2,1.86-.32,4.36-.98,5.99-1.2,2.59-.34,5.97-.99,8.38-1.2,8.22-.71,20.38-.46,28.75,0Z"/>
  </g>
</svg>